<svg version="1" xmlns="http://www.w3.org/2000/svg" width="1780" height="1780" viewBox="0 0 1335.000000 1335.000000"><path d="M633.5 2C571.6 6.1 510 19.7 454 41.5c-62.1 24.2-117.5 57-170.5 101.1-17.7 14.7-57.3 54.5-72.9 73.3C117.5 327.7 64.7 460.3 52 614c-2.9 35.2-2.2 96.2 1.5 133.9 11.2 112.2 45.7 218.2 99.3 305.6 34.4 56.1 80.3 109.6 128.2 149.5 52.2 43.4 111.8 76.8 174.9 98 53 17.8 105.1 28.2 160.9 32 19.8 1.3 68.1 1.3 87 0 97.9-7 188.4-35.8 264-84 12-7.7 12.2-7.8 12.2-5.2 0 2.2 7.5 10.2 41.7 44.4l41.8 41.8h139l41.8-41.8 41.7-41.7v-546l-41.3-41.3-41.2-41.2h-482l-41.8 41.8-41.7 41.7v128l41.8 41.7 41.7 41.8 98.3.2 98.3.3-5.6 9c-17.5 28-41 52.1-65.6 67.4-25 15.6-54.8 28.1-84.3 35.6-31.8 8-55.2 10.1-95.2 8.6-34.2-1.3-51.4-3.9-76.9-11.7-51.6-15.6-106.9-51.8-138.6-90.6-32.3-39.6-54.2-84.4-69.3-141.8-11.3-43-15.2-77.5-14.3-126.9.7-39.9 3.6-62.5 12.3-97.2 16.8-67.1 49-126.5 93.4-172.3 47.6-49.1 107-78.9 170.6-85.6 17.8-1.9 64.7-.8 80.3 1.9 76.1 13.2 141 56.2 185.6 123.1 5.1 7.6 9.4 14.3 9.6 14.8.2.4 16.4 9.9 36 21l35.5 20.2h161.9l41.7-41.7 41.8-41.8v-133l-41.8-41.8-41.7-41.7h-36.8l-17.1-16.8c-39.5-38.7-77.7-68.2-121.1-93.7C905.7 35.8 835.4 13.2 746 3.4 729 1.5 654.5.6 633.5 2zm100.3 84.5c99.7 10 189.7 46.9 268.2 109.9 22.5 18.1 54.2 48 71.1 67.1l8.3 9.5h72.6v133H992.2l-6.3-10.2c-18.9-30.5-47.8-63.5-76.8-87.7C851.4 260 783.9 231.5 713 225c-17.1-1.5-61-1.2-77.5.5-110.1 11.7-205.6 73.7-273.8 177.8-43.5 66.3-68.9 141.8-76.8 227.7-1.6 17.3-1.6 65.4 0 83.5 4.5 51.6 14.4 95.9 32.1 144.5 18 49.4 38 85.7 68.4 124 41.8 52.7 113.4 100.5 179.7 119.8 40.8 11.9 74.9 15.9 128.4 14.9 46.3-.9 79.8-6.3 118.5-19.4 39.7-13.4 83.9-37 107.1-57.4 35.5-31.2 65-69.5 86.9-112.9 16.1-32 24.3-55.7 33.5-96.7l.5-2.3H722V701h480v545h-140v-226.5l-6.8 13c-19 36.3-38.9 63.3-68.7 93.1-18.3 18.4-32.9 30.9-50.4 43.3-62.4 44.3-139.7 71.4-228.1 80.1-29.7 3-80.3 2.2-113.5-1.6-51.7-5.9-107.3-20.5-150.5-39.6-83.5-36.8-155.6-99.2-210.3-182-75.7-114.5-112-272.2-97.1-421.1 14.3-143.6 73.9-274.3 167.9-368.2 19.7-19.8 34.1-32.3 55-48C441.9 126.6 538.8 91.2 642.6 85c20.7-1.2 72.8-.4 91.2 1.5z"/></svg>