<svg xmlns="http://www.w3.org/2000/svg" viewBox="0 0 37.05 39.99"><path d="M18.4,38.74a17.83,17.83,0,0,1-6.59-1.2A15.37,15.37,0,0,1,6.27,33.7a17.77,17.77,0,0,1-3.75-6.18,21.59,21.59,0,0,1-1.28-7.37,20.91,20.91,0,0,1,1.28-7.31,18.66,18.66,0,0,1,3.61-6,16.78,16.78,0,0,1,12.6-5.56,16.39,16.39,0,0,1,6,1,16.84,16.84,0,0,1,4.29,2.42,20.83,20.83,0,0,1,2.43,2.23h1.61l1.25,1.25v4l-1.25,1.25H28.26l-1.08-.62a10.1,10.1,0,0,0-3.55-3.6A9,9,0,0,0,18.9,7.93h-.16a9.11,9.11,0,0,0-4.19,1,10.35,10.35,0,0,0-3.3,2.65,12.76,12.76,0,0,0-2.18,3.91,14.13,14.13,0,0,0-.78,4.71,14.76,14.76,0,0,0,.87,5.12A11.27,11.27,0,0,0,11.31,29a10.66,10.66,0,0,0,3.23,2.36,9.51,9.51,0,0,0,4.2.92,10.2,10.2,0,0,0,6.32-1.85A9.12,9.12,0,0,0,28,26.14H20.15L18.9,24.89V21l1.25-1.25h14.4L35.8,21V37.36l-1.25,1.25H30.37l-1.25-1.25V34.5A13.19,13.19,0,0,1,26,36.89a14.93,14.93,0,0,1-3.66,1.4A16.9,16.9,0,0,1,18.4,38.74Z" style="fill:#fff"/><path d="M18.74,2.5a15.09,15.09,0,0,1,5.56.92,15.52,15.52,0,0,1,4,2.23,18,18,0,0,1,2.64,2.5h2.18v4H28.26a11.28,11.28,0,0,0-4-4A10.29,10.29,0,0,0,18.9,6.68h-.18A10.28,10.28,0,0,0,14,7.78a11.55,11.55,0,0,0-3.69,3A13.94,13.94,0,0,0,7.89,15,15.31,15.31,0,0,0,7,20.15,15.93,15.93,0,0,0,8,25.7a12.44,12.44,0,0,0,2.4,4.16A11.85,11.85,0,0,0,14,32.5a10.7,10.7,0,0,0,4.75,1,11.36,11.36,0,0,0,7.08-2.1,11.28,11.28,0,0,0,3.86-6.55H20.15V21h14.4V37.36H30.37V30.53a11.57,11.57,0,0,1-2.13,3.09,11.88,11.88,0,0,1-2.85,2.17A13.64,13.64,0,0,1,22,37.07a15.57,15.57,0,0,1-3.63.43,16.51,16.51,0,0,1-6.13-1.11,14.07,14.07,0,0,1-5.09-3.54A16.44,16.44,0,0,1,3.7,27.09a20.25,20.25,0,0,1-1.2-6.94,19.57,19.57,0,0,1,1.2-6.87A17.32,17.32,0,0,1,7.07,7.64,15.53,15.53,0,0,1,18.74,2.5m0-2.5A18,18,0,0,0,5.21,6a19.89,19.89,0,0,0-3.86,6.44A22.15,22.15,0,0,0,0,20.15a22.84,22.84,0,0,0,1.35,7.79,19,19,0,0,0,4,6.61,16.61,16.61,0,0,0,6,4.15A19.07,19.07,0,0,0,18.4,40a18.14,18.14,0,0,0,4.21-.5,16.2,16.2,0,0,0,4-1.52,14.16,14.16,0,0,0,1.29-.79v.17l2.5,2.5h4.18l2.5-2.5V21l-2.5-2.5H20.15L17.65,21v3.86l2.5,2.5h5.9a6.79,6.79,0,0,1-1.76,2.06A8.88,8.88,0,0,1,18.74,31a8.17,8.17,0,0,1-3.66-.79,9.42,9.42,0,0,1-2.86-2.08,10,10,0,0,1-1.9-3.33,13.51,13.51,0,0,1-.79-4.68,12.89,12.89,0,0,1,.71-4.29,11.52,11.52,0,0,1,2-3.53A9,9,0,0,1,15.11,10a7.74,7.74,0,0,1,3.6-.83h.18A7.77,7.77,0,0,1,23,10.26a8.74,8.74,0,0,1,3.11,3.16l2.16,1.23h4.83l2.5-2.5v-4l-2.5-2.5H32a23.4,23.4,0,0,0-2.19-2,18.08,18.08,0,0,0-4.61-2.6A17.62,17.62,0,0,0,18.74,0Z" style="fill:#3949ab"/></svg>
